<svg xmlns="http://www.w3.org/2000/svg" width="190" height="48" viewBox="0 0 190 48" fill="none">
<g clip-path="url(#clip0_5996_370)">
<path fill-rule="evenodd" clip-rule="evenodd" d="M29.4038 39.6665C33.8065 39.2392 37.5222 35.4123 39.1157 30.1212C39.178 29.9146 39.0353 29.6999 38.8144 29.6667C35.8236 29.2149 32.6349 28.9593 29.3645 28.9239C29.1563 28.9214 28.9855 29.0843 28.9855 29.2846V39.3097C28.9855 39.525 29.181 39.6881 29.4038 39.6665Z" fill="#008FEA"></path>
<path fill-rule="evenodd" clip-rule="evenodd" d="M33.4777 9.45796C36.4706 11.2795 38.8241 14.7834 39.925 19.1163C39.9638 19.2693 40.1124 19.3673 40.2653 19.3382C44.5715 18.5226 48.3814 17.2511 51.2977 15.6145C51.4833 15.5104 51.5024 15.2426 51.333 15.1126C50.4675 14.4478 49.505 13.8171 48.4495 13.2265C46.9413 12.383 45.2909 11.6492 43.5303 11.0303V8.66111C43.5303 8.64712 43.527 8.63408 43.5263 8.62044V7.59954C43.5263 6.23071 44.6212 5.11683 45.9675 5.11683H47.8777C47.8877 5.11683 47.8968 5.11436 47.9063 5.11389C47.9162 5.11436 47.9254 5.11683 47.9353 5.11683C48.3108 5.11683 48.6151 4.80744 48.6151 4.42542V0.691295C48.6151 0.309384 48.3108 0 47.9353 0H34.7445C34.3689 0 34.0642 0.309384 34.0642 0.691295V4.42542C34.0642 4.80744 34.3689 5.11683 34.7445 5.11683C34.764 5.11683 34.7819 5.11295 34.8009 5.11107C34.8197 5.11295 34.838 5.11683 34.8575 5.11683H36.7681C38.1139 5.11683 39.2089 6.23071 39.2089 7.59954V8.6557C39.2089 8.65747 39.2085 8.65923 39.2085 8.66111V9.79544C37.4249 9.39155 35.5676 9.09039 33.6574 8.90161C33.3443 8.8707 33.2077 9.29387 33.4777 9.45796ZM42.1664 7.59954V8.88574C42.1664 8.89938 42.1695 8.91231 42.1702 8.92595V10.5842C42.0202 10.5379 41.8709 10.4912 41.7196 10.4463V7.14287C41.8511 5.85209 42.7184 4.78299 43.8853 4.36946C42.8516 5.06123 42.1664 6.24975 42.1664 7.59954ZM47.2551 1.38271V3.63033H44.9499C43.3598 3.63033 41.9973 4.63183 41.4347 6.04627C40.8721 4.63183 39.5098 3.63033 37.9198 3.63033H35.4244V1.38271H47.2551ZM40.5682 8.89115C40.5682 8.88939 40.5689 8.88751 40.5689 8.88574V7.59954C40.5689 6.19485 39.8255 4.96613 38.7203 4.28941C40.0929 4.64511 41.117 5.889 41.1629 7.38314C41.1618 7.41793 41.1575 7.45202 41.1575 7.48681V10.2869C40.9616 10.2322 40.7662 10.1774 40.5682 10.1257V8.89115Z" fill="#008FEA"></path>
<path fill-rule="evenodd" clip-rule="evenodd" d="M29.2501 20.0584C32.68 20.025 36.0199 19.7328 39.1304 19.2132C37.6623 13.2022 33.6914 8.82963 28.9855 8.5957V19.7947C28.9855 19.9408 29.1048 20.0598 29.2501 20.0584Z" fill="#008FEA"></path>
<path fill-rule="evenodd" clip-rule="evenodd" d="M51.2296 33.5084C48.2538 31.9361 44.3987 30.717 40.0575 29.9357C39.9404 29.9145 39.8265 29.9858 39.7949 30.0984C38.607 34.3389 36.1466 37.7351 33.0488 39.4368C32.8304 39.5565 32.9306 39.8828 33.1795 39.8605C34.7576 39.7201 36.3005 39.5057 37.7987 39.2253C36.3984 41.2022 34.1113 42.3942 31.6109 42.3942H31.1402C28.4462 42.3942 26.0785 40.9977 24.7437 38.9037C25.6881 39.3739 26.6899 39.678 27.7324 39.7801C27.9453 39.8009 28.1286 39.6292 28.1286 39.4188V29.3118C28.1286 29.1098 27.9598 28.9457 27.7543 28.9482C26.3497 28.9636 24.9614 29.0247 23.5955 29.1229V28.3321C24.9653 28.2342 26.3573 28.1745 27.7646 28.159C27.9659 28.157 28.1286 27.997 28.1286 27.7989V21.277C28.1286 21.0793 27.9659 20.9193 27.7646 20.9172C26.3573 20.9017 24.9653 20.8419 23.5955 20.7445V19.953C24.9847 20.0529 26.3971 20.1143 27.8265 20.1287C27.9925 20.1302 28.1286 19.9977 28.1286 19.8349V8.86679C26.5057 8.94703 24.9725 9.51122 23.5955 10.4483V9.49214C23.8155 9.35653 24.0385 9.22797 24.2652 9.11039C24.4311 9.02426 24.3532 8.77569 24.166 8.79165C23.9746 8.80748 23.786 8.8291 23.5955 8.84702V8.83477L23.596 8.82945V7.56465C23.596 6.21811 24.7106 5.12292 26.0802 5.12292H28.0248C28.032 5.12292 28.0384 5.12072 28.046 5.12072C28.0532 5.12072 28.0596 5.12292 28.0672 5.12292C28.4493 5.12292 28.759 4.81816 28.759 4.44254V0.769876C28.759 0.394136 28.4493 0.0898438 28.0672 0.0898438H8.03418C7.65202 0.0898438 7.34243 0.394136 7.34243 0.769876V4.44254C7.34243 4.81816 7.65202 5.12292 8.03418 5.12292C8.03677 5.12292 8.03924 5.12211 8.04183 5.12211C8.0443 5.12211 8.04677 5.12292 8.04936 5.12292H9.99347C11.3634 5.12292 12.4778 6.21811 12.4778 7.56465V8.5314C12.4778 8.53568 12.4764 8.53984 12.4764 8.54447V11.3122C11.074 11.8369 9.74598 12.4325 8.51268 13.0991C7.47099 13.6623 6.51835 14.2628 5.65839 14.8948C5.4436 15.0526 5.47477 15.3761 5.7105 15.5021C7.62649 16.5284 9.92089 17.4037 12.4764 18.1109V18.928C9.42298 18.1001 6.7216 17.0365 4.55989 15.7687L4.55589 15.7652C1.5902 18.2842 -9.15527e-05 21.2352 -9.15527e-05 24.3382C-9.15527e-05 27.4711 1.62078 30.4494 4.64281 32.9852C4.75997 33.0837 4.92805 33.0988 5.06238 33.0244C7.13482 31.8807 9.65471 30.9134 12.4764 30.1476V30.9635C10.0631 31.6308 7.88303 32.4485 6.03479 33.4014C5.78919 33.5282 5.76613 33.8612 5.99138 34.0204C6.76254 34.5648 7.6032 35.0853 8.51268 35.5771C10.0099 36.3864 11.6455 37.0921 13.388 37.6909C13.4693 37.7188 13.5508 37.715 13.624 37.6906C15.9946 43.5088 21.7859 47.6313 28.542 47.6313H28.921C35.1086 47.6313 40.6508 43.7811 42.7129 38.0503C42.7183 38.0351 42.72 38.0196 42.7243 38.0041C44.8255 37.3432 46.7853 36.5324 48.5523 35.5771C49.5345 35.0461 50.4361 34.4819 51.2565 33.8897C51.3919 33.7919 51.3776 33.5865 51.2296 33.5084ZM22.2119 7.56465V8.5388C22.2119 8.541 22.2116 8.54239 22.2116 8.54447V34.9782C22.2116 39.8174 26.2172 43.7542 31.1402 43.7542H31.6109C34.9933 43.7542 38.0459 41.9116 39.5779 38.945C39.5944 38.9135 39.6053 38.8808 39.6164 38.848C39.7295 38.8217 39.8413 38.7942 39.9541 38.7674C38.0839 42.613 34.172 45.0609 29.7843 45.0609H29.5507C23.3323 45.0609 18.2726 40.0883 18.2726 33.9762V10.462V8.55753V8.53707C18.2726 8.50354 18.2684 8.47105 18.2677 8.43741C18.3223 6.09487 20.2743 4.20449 22.6706 4.20449H24.2749C23.0496 4.84325 22.2119 6.10897 22.2119 7.56465ZM27.3749 1.45014V3.66042H22.6706C20.5074 3.66042 18.6682 5.03031 17.991 6.93167C17.3136 5.03031 15.4743 3.66042 13.3116 3.66042H8.72641V1.45014H27.3749ZM28.921 46.2709H28.542C20.4467 46.2709 13.8604 39.7973 13.8604 31.8405V8.84286C13.8604 8.83824 13.8618 8.83396 13.8618 8.82945V7.56465C13.8618 6.10897 13.0246 4.84325 11.7989 4.20449H13.3116C15.7078 4.20449 17.6596 6.09487 17.714 8.43741C17.7134 8.47105 17.7091 8.50354 17.7091 8.53707V10.462C17.7091 10.4797 17.7159 10.4952 17.7191 10.5117V33.9762C17.7191 40.3884 23.0269 45.605 29.5507 45.605H29.7843C34.5399 45.605 38.7646 42.8655 40.6427 38.5979C40.7781 38.5633 40.9124 38.5269 41.0469 38.491C38.9497 43.1815 34.1944 46.2709 28.921 46.2709Z" fill="#008FEA"></path>
<path fill-rule="evenodd" clip-rule="evenodd" d="M52.5165 15.888C52.3531 15.7408 52.1129 15.7193 51.9222 15.8289C48.9447 17.5391 45.0083 18.869 40.5459 19.7233C40.2696 19.7763 40.0899 20.0402 40.1398 20.3171C40.3661 21.5728 40.4884 22.8839 40.4884 24.2344C40.4884 25.7204 40.3428 27.1603 40.0715 28.5295C40.0159 28.8093 40.196 29.0795 40.4765 29.1327C44.8338 29.961 48.6924 31.2428 51.6516 32.8882C51.8385 32.9923 52.0704 32.9717 52.2324 32.832C55.1594 30.3062 56.7281 27.3464 56.7281 24.2344C56.7281 21.2248 55.2601 18.358 52.5165 15.888Z" fill="#008FEA"></path>
<path fill-rule="evenodd" clip-rule="evenodd" d="M29.3512 28.0173C32.6852 28.0524 35.9381 28.3145 38.9881 28.778C39.1823 28.8077 39.3674 28.6886 39.4076 28.5049C39.6984 27.1681 39.855 25.7558 39.855 24.2951C39.855 22.9734 39.7248 21.6922 39.4847 20.4697C39.448 20.2827 39.2603 20.1599 39.0628 20.1901C35.9916 20.661 32.7126 20.9272 29.3512 20.9627C29.1487 20.9647 28.9855 21.1205 28.9855 21.3132V27.6665C28.9855 27.8594 29.1487 28.0151 29.3512 28.0173Z" fill="#008FEA"></path>
</g>
<g clip-path="url(#clip1_5996_370)">
<path fill-rule="evenodd" clip-rule="evenodd" d="M82.6306 36.8845V26.2356C82.5305 26.1688 82.456 26.1268 82.4048 26.1094L78.2354 26.662V27.7422L79.9688 28.1938V35.8048C79.4186 36.1399 78.8524 36.3986 78.2688 36.5833C77.6856 36.767 77.2021 36.8589 76.8187 36.8589C76.0871 36.8589 75.5693 36.6631 75.2695 36.2695C74.9693 35.8754 74.8198 35.2773 74.8198 34.4732C74.8198 33.0841 74.816 31.7066 74.8073 30.3416C74.7986 28.9771 74.7947 27.6083 74.7947 26.2356L74.5665 26.135L70.3995 26.6872V27.7422C70.6838 27.8259 70.9686 27.9056 71.2539 27.9815C71.5382 28.056 71.822 28.1353 72.1073 28.219V35.5529C72.1073 36.826 72.4129 37.7138 73.0241 38.2157C73.6352 38.7185 74.4925 38.9695 75.5983 38.9695C75.9667 38.9695 76.3811 38.9443 76.8414 38.8931C77.3017 38.8437 77.7335 38.7683 78.1348 38.6677C78.7209 38.1485 79.3325 37.5871 79.9688 36.9846C79.9853 37.0016 80.0017 37.0103 80.0191 37.0103L80.5964 38.8437L80.7976 38.9187L84.5646 38.4168V37.3366C84.23 37.2535 83.9037 37.1775 83.586 37.1108C83.2669 37.0436 82.9492 36.9692 82.6306 36.8845Z" fill="#008FEA"></path>
<path fill-rule="evenodd" clip-rule="evenodd" d="M98.6542 29.5515C98.6542 28.3297 98.3612 27.4502 97.7723 26.9149C97.1853 26.3787 96.3275 26.1113 95.2024 26.1113C94.8161 26.1113 94.392 26.1355 93.9298 26.1863C93.4675 26.2366 93.0271 26.3115 92.6069 26.4126L90.7927 28.1203C90.7763 28.1203 90.7676 28.1155 90.7676 28.1078C90.7676 28.0995 90.7598 28.0942 90.7429 28.0942L90.1646 26.2612L89.9393 26.1602C89.3528 26.2612 88.7629 26.3541 88.1682 26.4372C87.5744 26.5213 86.9831 26.6132 86.3976 26.7133V27.7683L88.1305 28.2209V36.9353L86.2216 37.6142L86.2723 38.6682H92.5764L92.6016 37.5634L90.7927 37.0359C90.7763 35.463 90.7676 34.0555 90.7676 32.8167V29.3253C91.3372 29.0081 91.8898 28.76 92.4256 28.5845C92.9613 28.4095 93.4637 28.3215 93.9317 28.3215C94.702 28.3215 95.23 28.5096 95.5152 28.8857C95.7995 29.2624 95.9422 29.8528 95.9422 30.6564V36.9605L94.1329 37.5886L94.1585 38.6682H100.362L100.413 37.5634L98.6542 37.0359V29.5515Z" fill="#008FEA"></path>
<path fill-rule="evenodd" clip-rule="evenodd" d="M104.218 21.3144C103.874 21.649 103.703 22.06 103.703 22.5445C103.703 23.0314 103.861 23.4448 104.18 23.7885C104.498 24.1314 104.924 24.304 105.46 24.304C105.98 24.304 106.406 24.1314 106.742 23.7885C107.076 23.4448 107.244 23.0314 107.244 22.5445C107.244 22.06 107.076 21.649 106.742 21.3144C106.406 20.9798 105.98 20.8125 105.46 20.8125C104.975 20.8125 104.56 20.9798 104.218 21.3144Z" fill="#008FEA"></path>
<path fill-rule="evenodd" clip-rule="evenodd" d="M106.88 31.5987C106.871 29.7981 106.868 27.9854 106.868 26.1606L106.641 26.0605L102.498 26.6881V27.7427C102.777 27.8268 103.062 27.9066 103.351 27.9816C103.64 28.0575 103.924 28.1363 104.205 28.2204V36.9107L102.246 37.6388C102.246 37.8231 102.249 37.9947 102.259 38.1538C102.266 38.3133 102.279 38.4845 102.296 38.6687H108.826C108.826 38.4845 108.83 38.3133 108.839 38.1538C108.847 37.9947 108.852 37.8231 108.852 37.6388L106.918 37.0359C106.9 35.2111 106.888 33.3984 106.88 31.5987Z" fill="#008FEA"></path>
<path fill-rule="evenodd" clip-rule="evenodd" d="M121.543 26.2869C121.099 26.3038 120.627 26.3197 120.124 26.3371C119.621 26.3536 119.149 26.371 118.705 26.3869C118.261 26.4044 117.965 26.4121 117.813 26.4121V27.5426L119.371 28.0449C119.32 28.145 119.229 28.38 119.095 28.748C118.96 29.1164 118.801 29.5603 118.618 30.0791C118.433 30.5984 118.237 31.1549 118.028 31.7491C117.818 32.3434 117.621 32.9004 117.438 33.4197C117.253 33.9385 117.094 34.3867 116.96 34.7639C116.826 35.14 116.741 35.3707 116.708 35.4539H116.582L114.198 29.0995C114.013 28.6314 113.857 28.1411 113.733 27.6301C113.606 27.1204 113.527 26.663 113.494 26.2617L109.249 26.4377V27.5672L110.555 28.0198C110.639 28.204 110.801 28.5763 111.044 29.1377C111.287 29.6986 111.567 30.3557 111.886 31.109C112.204 31.8628 112.543 32.6707 112.903 33.5324C113.264 34.3945 113.602 35.2024 113.92 35.9562C114.239 36.71 114.52 37.3715 114.762 37.9401C115.005 38.5092 115.168 38.8781 115.251 39.0459L116.834 38.719L120.124 31.0838C120.476 30.2797 120.835 29.5637 121.205 28.936C121.572 28.3089 122.024 27.7853 122.561 27.3661L122.435 26.2617C122.284 26.2617 121.987 26.2704 121.543 26.2869Z" fill="#008FEA"></path>
<path fill-rule="evenodd" clip-rule="evenodd" d="M133.29 27.9803C132.904 27.4359 132.373 26.992 131.694 26.6492C131.017 26.3059 130.124 26.1348 129.02 26.1348C127.831 26.1348 126.851 26.3272 126.082 26.7121C125.311 27.0979 124.699 27.6003 124.248 28.2192C123.795 28.8391 123.478 29.5378 123.293 30.3162C123.108 31.0947 123.017 31.8857 123.017 32.6898C123.017 33.6781 123.126 34.5605 123.343 35.34C123.561 36.1184 123.905 36.7799 124.373 37.3238C124.842 37.8673 125.454 38.2826 126.207 38.5669C126.96 38.8517 127.864 38.9939 128.919 38.9939C129.824 38.9939 130.703 38.8595 131.557 38.5926C132.411 38.3247 133.155 37.9722 133.791 37.538L133.315 36.2069C132.627 36.4917 131.97 36.688 131.344 36.7958C130.716 36.9051 130.209 36.9597 129.824 36.9597C129.087 36.9597 128.471 36.863 127.977 36.6711C127.483 36.4782 127.082 36.1895 126.773 35.8041C126.462 35.4197 126.24 34.942 126.107 34.3729C125.972 33.8038 125.906 33.1419 125.906 32.3886L134.067 31.9616L134.294 31.6846C134.277 31.0662 134.202 30.4294 134.067 29.7771C133.933 29.1234 133.675 28.5248 133.29 27.9803ZM125.956 31.2088C125.956 30.8563 125.997 30.4845 126.082 30.0904C126.165 29.6973 126.311 29.3284 126.521 28.9851C126.73 28.6428 127.014 28.3575 127.375 28.1312C127.735 27.9059 128.2 27.7923 128.769 27.7923C129.27 27.7923 129.674 27.8803 129.974 28.0563C130.276 28.2318 130.51 28.4576 130.677 28.7342C130.845 29.0102 130.957 29.3202 131.017 29.6635C131.075 30.0063 131.104 30.3457 131.104 30.6808L125.956 31.2088Z" fill="#008FEA"></path>
<path fill-rule="evenodd" clip-rule="evenodd" d="M145.388 25.9102C144.969 25.9102 144.564 25.9778 144.17 26.1113C143.776 26.2457 143.404 26.4125 143.052 26.6142C142.701 26.8143 142.37 27.0401 142.06 27.292C141.75 27.543 141.47 27.7857 141.219 28.0202L141.168 27.9951L140.742 26.237L140.515 26.1113L136.798 26.6891V27.7441L138.531 28.1967V36.9111L136.547 37.6146L136.597 38.6692H143.128L143.153 37.6146L141.193 37.0368V28.9244L145.313 29.2261C145.58 28.891 145.785 28.5057 145.928 28.07C146.069 27.6349 146.141 27.2161 146.141 26.8143C146.141 26.4797 146.066 26.2457 145.916 26.1113C145.765 25.9778 145.589 25.9102 145.388 25.9102Z" fill="#008FEA"></path>
<path fill-rule="evenodd" clip-rule="evenodd" d="M155.78 32.8155C155.453 32.5143 155.06 32.2459 154.6 32.0114C154.138 31.7779 153.607 31.5347 153.005 31.2832C152.519 31.0826 152.096 30.9071 151.736 30.7562C151.376 30.6058 151.079 30.4545 150.845 30.3041C150.61 30.1533 150.438 29.9894 150.33 29.8134C150.22 29.6388 150.167 29.4338 150.167 29.1993C150.167 28.7298 150.333 28.3788 150.669 28.1443C151.003 27.9098 151.438 27.7923 151.975 27.7923C152.209 27.7923 152.523 27.8295 152.917 27.9059C153.31 27.9803 153.699 28.1351 154.085 28.3701L155.014 30.4047L155.968 30.3041C155.968 29.7515 155.972 29.2027 155.981 28.6582C155.989 28.1148 155.993 27.5669 155.993 27.0133C155.357 26.6792 154.675 26.4486 153.946 26.3233C153.218 26.1971 152.56 26.1348 151.975 26.1348C151.121 26.1348 150.401 26.231 149.815 26.4234C149.228 26.6163 148.756 26.8716 148.396 27.1893C148.035 27.508 147.771 27.8759 147.605 28.2946C147.437 28.7134 147.353 29.1485 147.353 29.6011C147.353 30.1533 147.466 30.6174 147.693 30.9946C147.918 31.3717 148.22 31.6976 148.597 31.9747C148.973 32.2503 149.396 32.493 149.865 32.7029C150.333 32.9117 150.81 33.1264 151.297 33.3425C151.665 33.5103 152.008 33.6651 152.327 33.8082C152.644 33.9498 152.925 34.1051 153.168 34.2728C153.41 34.4392 153.599 34.6369 153.733 34.8622C153.866 35.0885 153.934 35.3612 153.934 35.6784C153.934 36.2649 153.695 36.688 153.218 36.9467C152.741 37.2068 152.133 37.3369 151.397 37.3369C151.062 37.3369 150.664 37.2822 150.204 37.173C149.743 37.0642 149.338 36.8843 148.986 36.6334L147.906 34.3976C147.771 34.4324 147.625 34.4604 147.466 34.4856C147.307 34.5107 147.161 34.5402 147.027 34.5741L147.228 38.1149C147.714 38.3996 148.333 38.6221 149.087 38.7807C149.84 38.9397 150.619 39.0195 151.422 39.0195C152.343 39.0195 153.143 38.9223 153.821 38.7304C154.499 38.5379 155.055 38.2739 155.491 37.9393C155.926 37.6043 156.248 37.2068 156.458 36.7455C156.667 36.2867 156.772 35.7877 156.772 35.2515C156.772 34.6993 156.688 34.2312 156.521 33.8454C156.353 33.46 156.106 33.1167 155.78 32.8155Z" fill="#008FEA"></path>
<path fill-rule="evenodd" clip-rule="evenodd" d="M161.811 24.3025C162.331 24.3025 162.757 24.1309 163.092 23.7876C163.427 23.4438 163.595 23.0294 163.595 22.543C163.595 22.0585 163.427 21.6485 163.092 21.3129C162.757 20.9788 162.331 20.8105 161.811 20.8105C161.326 20.8105 160.911 20.9788 160.568 21.3129C160.225 21.6485 160.053 22.0585 160.053 22.543C160.053 23.0294 160.212 23.4438 160.532 23.7876C160.849 24.1309 161.275 24.3025 161.811 24.3025Z" fill="#008FEA"></path>
<path fill-rule="evenodd" clip-rule="evenodd" d="M163.23 31.5987C163.221 29.7981 163.217 27.9854 163.217 26.1606L162.992 26.0605L158.847 26.6881V27.7427C159.128 27.8268 159.412 27.9066 159.701 27.9816C159.99 28.0575 160.275 28.1363 160.555 28.2204V36.9107L158.596 37.6388C158.596 37.8231 158.6 37.9947 158.609 38.1538C158.617 38.3133 158.629 38.4845 158.646 38.6687H165.176C165.176 38.4845 165.181 38.3133 165.189 38.1538C165.197 37.9947 165.202 37.8231 165.202 37.6388L163.268 37.0359C163.251 35.2111 163.238 33.3984 163.23 31.5987Z" fill="#008FEA"></path>
<path fill-rule="evenodd" clip-rule="evenodd" d="M174.818 36.66C174.282 36.778 173.838 36.8699 173.486 36.9357C173.135 37.0038 172.784 37.0367 172.432 37.0367C171.763 37.0367 171.297 36.8776 171.038 36.5585C170.779 36.2394 170.649 35.7776 170.649 35.1732V27.8199H174.366V26.4129H170.649V23.2488C170.615 23.2144 170.577 23.1849 170.534 23.1607C170.492 23.1351 170.455 23.1061 170.42 23.0723L169.001 23.4997L168.089 26.1619C167.753 26.2949 167.425 26.4163 167.107 26.526C166.789 26.6353 166.471 26.7557 166.153 26.8901V27.8199H167.936V35.2791C167.936 35.9319 167.987 36.4889 168.088 36.9492C168.19 37.41 168.366 37.791 168.621 38.0922C168.875 38.3935 169.216 38.6159 169.647 38.7575C170.078 38.8997 170.621 38.9703 171.276 38.9703C172.599 38.9703 173.914 38.657 175.22 38.0289C175.153 37.7978 175.086 37.5705 175.019 37.3466C174.951 37.1237 174.885 36.895 174.818 36.66Z" fill="#008FEA"></path>
<path fill-rule="evenodd" clip-rule="evenodd" d="M189.147 26.8378C189.121 26.6546 189.1 26.4689 189.084 26.2852L184.462 26.436C184.462 26.6202 184.458 26.8001 184.45 26.9761C184.442 27.1516 184.438 27.332 184.438 27.5152L185.994 28.0437C185.509 29.4169 185.027 30.7857 184.55 32.1497C184.073 33.5147 183.592 34.8922 183.106 36.2819H183.005C182.62 35.0929 182.206 33.9165 181.762 32.7522C181.318 31.5888 180.904 30.4042 180.519 29.1993C180.334 28.6631 180.193 28.1443 180.092 27.6419C179.992 27.139 179.924 26.687 179.891 26.2852L175.647 26.4612V27.5916L176.953 28.0437C177.656 29.8356 178.355 31.6183 179.05 33.3933C179.745 35.1678 180.444 36.9428 181.147 38.7178L182.051 38.8179L181.423 40.4512C181.357 40.6354 181.269 40.8356 181.16 41.0537C181.051 41.2708 180.921 41.4811 180.771 41.6813C180.62 41.8824 180.44 42.0584 180.23 42.2093C180.021 42.3601 179.783 42.4607 179.514 42.5105L177.304 41.2539C176.969 41.4052 176.701 41.6315 176.501 41.9332C176.3 42.2344 176.199 42.5434 176.199 42.8625C176.199 43.3475 176.425 43.7285 176.877 44.0051C177.329 44.2812 177.873 44.419 178.51 44.419C179.498 44.419 180.331 44.0848 181.009 43.4152C181.687 42.7441 182.252 41.8568 182.704 40.752C183.391 39.1452 184.077 37.5375 184.763 35.9303C185.45 34.3222 186.129 32.7067 186.799 31.0831C187.133 30.279 187.488 29.5595 187.866 28.9227C188.242 28.2869 188.691 27.7758 189.209 27.391C189.193 27.2067 189.172 27.0225 189.147 26.8378Z" fill="#008FEA"></path>
<path fill-rule="evenodd" clip-rule="evenodd" d="M103.367 14.0184L103.415 5.06224L105.714 4.50522L105.617 3.00391C105.617 3.00391 104.572 3.09868 103.32 3.09868C102.067 3.09868 98.8636 3.00391 98.8636 3.00391L98.7427 4.40804L100.849 5.08593V12.9537C100.849 13.5992 100.792 14.2046 100.679 14.7693C100.567 15.3345 100.37 15.8224 100.088 16.2339C99.8074 16.6454 99.4206 16.9683 98.9298 17.2019C98.4396 17.4364 97.8245 17.5529 97.0843 17.5529C96.2633 17.5529 95.6033 17.4407 95.1047 17.214C94.6067 16.9882 94.2209 16.6855 93.9472 16.3064C93.674 15.9278 93.4927 15.4878 93.4042 14.9869C93.3157 14.4869 93.2717 13.9541 93.2717 13.3889V5.08593L95.523 4.5294L95.4505 3.05226C95.4505 3.05226 94.9157 3.14703 92.8279 3.14703C90.7405 3.14703 87.5348 3.05226 87.5348 3.05226L87.4135 4.4327L89.5922 5.11059V14.382C89.5922 15.5279 89.8098 16.4679 90.2454 17.2019C90.6815 17.9368 91.2298 18.5132 91.8918 18.9329C92.5532 19.353 93.2756 19.6432 94.0584 19.8042C94.8407 19.9652 95.5791 20.0464 96.2729 20.0464C97.064 20.0464 97.8782 19.9652 98.7186 19.8042C99.5565 19.6432 100.319 19.3405 101.006 18.8966C101.691 18.4527 102.253 17.8401 102.689 17.0568C103.124 16.275 103.35 15.2615 103.367 14.0184Z" fill="#008FEA"></path>
<path fill-rule="evenodd" clip-rule="evenodd" d="M111.165 19.5861H112.304C112.448 19.5861 112.706 19.59 113.078 19.5982C113.449 19.6064 113.84 19.6142 114.252 19.6224C114.663 19.6306 115.05 19.6388 115.413 19.6466C115.777 19.6548 116.007 19.6582 116.103 19.6582C117.218 19.6582 118.186 19.5179 119.008 19.2351C119.832 18.9527 120.533 18.5814 121.115 18.1211C121.695 17.6617 122.172 17.1332 122.542 16.5351C122.913 15.9389 123.201 15.3302 123.402 14.7079C123.604 14.0876 123.745 13.4735 123.827 12.8686C123.907 12.2633 123.947 11.7106 123.947 11.2102C123.947 10.2098 123.81 9.21758 123.536 8.23266C123.261 7.2487 122.805 6.36484 122.167 5.58202C121.53 4.79921 120.679 4.16532 119.614 3.68229C118.549 3.19732 117.233 2.95508 115.668 2.95508C115.377 2.95508 115.091 2.95991 114.808 2.96717C114.526 2.97635 114.236 2.98796 113.937 3.0044C113.638 3.01987 113.308 3.03196 112.945 3.04018C112.581 3.0484 112.173 3.05275 111.722 3.05275H110.851C110.592 3.05275 110.33 3.0484 110.064 3.04018C109.797 3.03196 109.515 3.02374 109.216 3.01552C108.918 3.00826 108.559 2.99618 108.139 2.97974L107.97 4.45591L109.906 5.0371V17.6255L107.752 18.2787L107.897 19.6582C108.349 19.6427 108.757 19.6306 109.12 19.6224C109.483 19.6142 109.829 19.6064 110.16 19.5982C110.491 19.59 110.826 19.5861 111.165 19.5861ZM113.586 5.30352C113.763 5.28756 113.963 5.27596 114.188 5.26677C114.414 5.25952 114.64 5.25517 114.864 5.25517C115.572 5.25517 116.243 5.33978 116.878 5.5095C117.513 5.67873 118.071 5.98141 118.554 6.41754C119.037 6.85319 119.422 7.44985 119.711 8.208C120.002 8.96712 120.146 9.93561 120.146 11.1135C120.146 11.9364 120.065 12.7318 119.905 13.4982C119.744 14.2645 119.483 14.9424 119.121 15.5313C118.759 16.1203 118.277 16.5883 117.674 16.9355C117.071 17.2826 116.335 17.4557 115.467 17.4557C115.177 17.4557 114.861 17.4432 114.515 17.4195C114.168 17.3958 113.859 17.3513 113.586 17.2865V5.30352Z" fill="#008FEA"></path>
<path fill-rule="evenodd" clip-rule="evenodd" d="M125.103 18.2298L125.199 19.6586H132.244L132.341 18.1331L129.944 17.625L129.799 7.28835L129.896 7.26369L133.382 11.8639L139.652 20.0213L141.515 19.634C141.515 19.3598 141.524 18.8478 141.54 18.0974C141.555 17.3465 141.572 16.479 141.588 15.4946C141.604 14.5106 141.62 13.4658 141.636 12.3595C141.652 11.2546 141.673 10.2054 141.696 9.21275C141.721 8.22009 141.736 7.35314 141.745 6.61046C141.753 5.86875 141.765 5.35961 141.782 5.08594L144.275 4.50475L144.178 3.00343H137.207L137.11 4.40805L139.434 5.0371L139.652 13.9212L139.555 13.9459L136.577 9.99943L132.414 4.50475C132.268 4.31086 132.114 4.08506 131.953 3.82686C131.792 3.56914 131.639 3.27758 131.494 2.95508C131.026 2.97152 130.279 2.99134 129.254 3.016C128.229 3.03969 127.007 3.03631 125.587 3.00343L125.417 4.40805L127.911 5.10963L127.596 17.5524L125.103 18.2298Z" fill="#008FEA"></path>
<path fill-rule="evenodd" clip-rule="evenodd" d="M70.3995 18.1626L70.4725 19.6925C70.4725 19.6925 73.055 19.575 74.4877 19.575C75.9208 19.575 78.5763 19.6925 78.5763 19.6925L78.6493 18.1626L76.2554 17.5925V12.6931C76.5707 12.7738 77.4067 12.959 78.468 12.9624L83.5169 20.5231L86.5432 19.8448L86.857 18.8047L81.6292 12.372C83.5231 11.6511 85.3407 10.1604 84.8301 6.77242C84.2059 2.63593 79.6531 2.98261 78.3819 2.98261C77.1103 2.98261 73.8634 3.5696 71.0209 2.85352L70.6123 4.42059C70.6123 4.42059 71.3675 4.77598 72.6049 5.05255V17.6375L70.3995 18.1626ZM80.9982 7.94881C80.9982 9.55264 80.0578 11.215 76.2554 10.5666V5.34363C76.3864 5.33541 76.5151 5.32912 76.649 5.31703C80.1153 4.99308 80.9982 6.33048 80.9982 7.94881Z" fill="#008FEA"></path>
</g>
<defs>
<clipPath id="clip0_5996_370">
<rect width="57.1429" height="48" fill="white"></rect>
</clipPath>
<clipPath id="clip1_5996_370">
<rect width="120" height="42.2857" fill="white" transform="translate(69.7148 2.28516)"></rect>
</clipPath>
</defs>
</svg>